<svg width="60" height="60" viewBox="0 0 60 60" fill="none" xmlns="http://www.w3.org/2000/svg">
<g clip-path="url(#clip0_0_290)">
<g clip-path="url(#clip1_0_290)">
<path fill-rule="evenodd" clip-rule="evenodd" d="M28.4149 55.2121C28.7576 55.7577 29.3576 56.0903 30.0029 56.0903C30.6481 56.0903 31.2481 55.7577 31.5908 55.2121C36.6659 47.1203 52.3599 22.096 55.9621 16.3523C56.4017 15.6508 56.3294 14.7439 55.7833 14.1202C53.7177 11.7627 48.7627 6.10461 47.0927 4.19766C46.7364 3.79269 46.2222 3.55884 45.6822 3.55884C41.0553 3.55884 18.9504 3.55884 14.3235 3.55884C13.7835 3.55884 13.2693 3.79269 12.9131 4.19766C11.243 6.10461 6.28794 11.7627 4.22242 14.1202C3.67634 14.7439 3.6041 15.6508 4.04366 16.3523C7.64576 22.096 23.3399 47.1203 28.4149 55.2121Z" fill="#167989" fill-opacity="0.1"/>
<path fill-rule="evenodd" clip-rule="evenodd" d="M3.83826 15.1875H56.1919C56.1156 14.9374 55.9868 14.701 55.8067 14.4947C53.7407 12.1373 48.7819 6.47814 47.1112 4.57093C46.756 4.16448 46.2407 3.93188 45.7004 3.93188C41.0731 3.93188 18.9571 3.93188 14.3298 3.93188C13.7894 3.93188 13.2743 4.16448 12.9191 4.57093C11.2482 6.47814 6.28947 12.1373 4.22344 14.4947C4.04336 14.701 3.91454 14.9374 3.83826 15.1875Z" fill="white"/>
<path fill-rule="evenodd" clip-rule="evenodd" d="M22.5113 15.1875L30.0151 3.93188H14.3297C14.1509 3.93188 13.9746 3.95689 13.8058 4.00692L22.5113 15.1875ZM30.0151 3.93188L37.5189 15.1875L46.2244 4.00692C46.0557 3.95689 45.8793 3.93188 45.7005 3.93188H30.0151Z" fill="#167989" fill-opacity="0.1"/>
<path fill-rule="evenodd" clip-rule="evenodd" d="M37.5189 15.1875H22.5114L30.0151 3.93188L37.5189 15.1875Z" fill="white"/>
<path fill-rule="evenodd" clip-rule="evenodd" d="M30.0151 56.4731L22.5114 15.1875H37.5189L30.0151 56.4731Z" fill="white"/>
<path fill-rule="evenodd" clip-rule="evenodd" d="M15.0049 48.9917L16.4857 51.2637L18.7576 52.7443L16.4857 54.2238L15.0049 56.4957L13.5256 54.2238L11.2537 52.7443L13.5256 51.2637L15.0049 48.9917Z" fill="#167989" fill-opacity="0.1"/>
<path fill-rule="evenodd" clip-rule="evenodd" d="M7.50498 33.9917L8.98576 36.2637L11.2576 37.7443L8.98576 39.2238L7.50498 41.4957L6.02551 39.2238L3.75366 37.7443L6.02551 36.2637L7.50498 33.9917Z" fill="#167989" fill-opacity="0.1"/>
<path fill-rule="evenodd" clip-rule="evenodd" d="M51.2542 40.2412L52.735 42.5131L55.0069 43.9938L52.735 45.4733L51.2542 47.7452L49.7748 45.4733L47.5029 43.9938L49.7748 42.5131L51.2542 40.2412Z" fill="#167989" fill-opacity="0.1"/>
<path d="M23.1338 48.1443C23.8245 48.1443 24.3845 47.5844 24.3845 46.8937C24.3845 46.203 23.8245 45.6431 23.1338 45.6431C22.4431 45.6431 21.8832 46.203 21.8832 46.8937C21.8832 47.5844 22.4431 48.1443 23.1338 48.1443Z" fill="#167989"/>
<path fill-rule="evenodd" clip-rule="evenodd" d="M5.339 16.438H21.4758L28.5131 53.3802L26.317 49.8797C25.9506 49.2945 25.1777 49.1182 24.5936 49.4845C24.0083 49.851 23.832 50.6238 24.1985 51.2079C24.1985 51.2079 26.5522 54.961 27.3662 56.2591C27.9378 57.1709 28.9382 57.7236 30.0151 57.7236C31.0919 57.7236 32.0923 57.1709 32.6639 56.2591L57.0449 17.3922C57.7789 16.2229 57.6576 14.7096 56.7472 13.6704C54.6811 11.3129 49.7237 5.65386 48.0528 3.74667C47.4588 3.07007 46.6021 2.68115 45.7004 2.68115H14.3298C13.428 2.68115 12.5713 3.07007 11.9773 3.74667C10.3065 5.65386 5.34901 11.3129 3.28297 13.6704C2.37252 14.7096 2.25121 16.2229 2.98532 17.3922L20.0626 44.6159C20.4302 45.2011 21.202 45.3774 21.7872 45.0111C22.3712 44.6446 22.5488 43.8718 22.1824 43.2877L5.339 16.438ZM53.6556 13.9368L46.4658 5.73142L40.0776 13.9368H48.7745C49.4648 13.9368 50.0251 14.4971 50.0251 15.1875C50.0251 15.8777 49.4648 16.438 48.7745 16.438H38.5543L31.517 53.3802L54.6912 16.438H52.5263C51.836 16.438 51.2758 15.8777 51.2758 15.1875C51.2758 14.4971 51.836 13.9368 52.5263 13.9368H53.6556ZM36.008 16.438H24.0221L30.0151 47.8987L36.008 16.438ZM6.37452 13.9368H19.9525L13.5643 5.73142L6.37452 13.9368ZM24.8488 13.9368H35.1814L30.0151 6.18666L24.8488 13.9368ZM43.7232 5.1824H32.3525L37.5977 13.05L43.7232 5.1824ZM27.6776 5.1824H16.307L22.4326 13.05L27.6776 5.1824Z" fill="#167989"/>
<path fill-rule="evenodd" clip-rule="evenodd" d="M16.0527 48.3088C15.8224 47.9547 15.4288 47.7415 15.0049 47.7415C14.5824 47.7415 14.1889 47.9547 13.9572 48.3088L12.6213 50.3595L10.5705 51.6969C10.2164 51.9272 10.0019 52.3208 10.0019 52.7446C10.0019 53.1671 10.2164 53.5606 10.5705 53.7923L12.6213 55.1283L13.9572 57.1791C14.1889 57.5331 14.5824 57.7477 15.0049 57.7477C15.4288 57.7477 15.8224 57.5331 16.0527 57.1791L17.3901 55.1283L19.4407 53.7923C19.7949 53.5606 20.008 53.1671 20.008 52.7446C20.008 52.3208 19.7949 51.9272 19.4407 51.6969L17.3901 50.3595L16.0527 48.3088ZM15.0049 51.2822L15.438 51.947C15.5328 52.0917 15.6579 52.2167 15.8026 52.3115L16.4674 52.7446L15.8026 53.1763C15.6579 53.2711 15.5328 53.3961 15.438 53.5423L15.0049 54.2056L14.5732 53.5423C14.4785 53.3961 14.3535 53.2711 14.2073 53.1763L13.5439 52.7446L14.2073 52.3115C14.3535 52.2167 14.4785 52.0917 14.5732 51.947L15.0049 51.2822Z" fill="#167989"/>
<path fill-rule="evenodd" clip-rule="evenodd" d="M8.55269 33.3088C8.32235 32.9547 7.9288 32.7415 7.50496 32.7415C7.08245 32.7415 6.68888 32.9547 6.45722 33.3088L5.12123 35.3595L3.07051 36.6969C2.71644 36.9272 2.50189 37.3208 2.50189 37.7446C2.50189 38.1671 2.71644 38.5606 3.07051 38.7923L5.12123 40.1283L6.45722 42.1791C6.68888 42.5331 7.08245 42.7477 7.50496 42.7477C7.9288 42.7477 8.32235 42.5331 8.55269 42.1791L9.89 40.1283L11.9407 38.7923C12.2949 38.5606 12.508 38.1671 12.508 37.7446C12.508 37.3208 12.2949 36.9272 11.9407 36.6969L9.89 35.3595L8.55269 33.3088ZM7.50496 36.2822L7.938 36.947C8.03278 37.0917 8.15782 37.2167 8.30261 37.3115L8.96731 37.7446L8.30261 38.1763C8.15782 38.2711 8.03278 38.3961 7.938 38.5423L7.50496 39.2056L7.07323 38.5423C6.97846 38.3961 6.85342 38.2711 6.70732 38.1763L6.04392 37.7446L6.70732 37.3115C6.85342 37.2167 6.97846 37.0917 7.07323 36.947L7.50496 36.2822Z" fill="#167989"/>
<path fill-rule="evenodd" clip-rule="evenodd" d="M52.3021 39.5581C52.0717 39.204 51.6781 38.9907 51.2543 38.9907C50.8317 38.9907 50.4383 39.204 50.2065 39.5581L48.8706 41.6088L46.8199 42.946C46.4658 43.1764 46.2512 43.57 46.2512 43.9939C46.2512 44.4164 46.4658 44.8099 46.8199 45.0416L48.8706 46.3776L50.2065 48.4282C50.4383 48.7824 50.8317 48.9969 51.2543 48.9969C51.6781 48.9969 52.0717 48.7824 52.3021 48.4282L53.6394 46.3776L55.6901 45.0416C56.0442 44.8099 56.2574 44.4164 56.2574 43.9939C56.2574 43.57 56.0442 43.1764 55.6901 42.946L53.6394 41.6088L52.3021 39.5581ZM51.2543 42.5314L51.6873 43.1961C51.7821 43.341 51.9072 43.466 52.052 43.5608L52.7167 43.9939L52.052 44.4255C51.9072 44.5203 51.7821 44.6454 51.6873 44.7915L51.2543 45.4549L50.8226 44.7915C50.7278 44.6454 50.6028 44.5203 50.4566 44.4255L49.7933 43.9939L50.4566 43.5608C50.6028 43.466 50.7278 43.341 50.8226 43.1961L51.2543 42.5314Z" fill="#167989"/>
</g>
</g>
<defs>
<clipPath id="clip0_0_290">
<rect width="60" height="60" fill="white"/>
</clipPath>
<clipPath id="clip1_0_290">
<rect width="60" height="60" fill="white"/>
</clipPath>
</defs>
</svg>
