<svg width="36" height="35" viewBox="0 0 36 35" fill="none" xmlns="http://www.w3.org/2000/svg">
<path d="M15.8271 5.34484C16.1007 5.03931 16.4356 4.79491 16.81 4.62759C17.1844 4.46026 17.5899 4.37378 18 4.37378C18.4101 4.37378 18.8156 4.46026 19.19 4.62759C19.5644 4.79491 19.8994 5.03931 20.1729 5.34484L21.1938 6.48526C21.4855 6.81119 21.8468 7.06732 22.251 7.23469C22.6552 7.40206 23.0918 7.47637 23.5286 7.45213L25.0598 7.36755C25.4694 7.34497 25.8791 7.40904 26.2622 7.55556C26.6453 7.70209 26.9932 7.92777 27.2832 8.21789C27.5732 8.508 27.7987 8.85602 27.9451 9.23921C28.0914 9.62241 28.1553 10.0322 28.1325 10.4417L28.0479 11.9715C28.0239 12.408 28.0983 12.8444 28.2657 13.2483C28.4331 13.6521 28.6891 14.0132 29.0148 14.3048L30.1552 15.3257C30.461 15.5992 30.7056 15.9343 30.8731 16.3088C31.0405 16.6834 31.1271 17.089 31.1271 17.4993C31.1271 17.9096 31.0405 18.3153 30.8731 18.6898C30.7056 19.0644 30.461 19.3994 30.1552 19.673L29.0148 20.6938C28.6889 20.9856 28.4327 21.3469 28.2654 21.751C28.098 22.1552 28.0237 22.5918 28.0479 23.0286L28.1325 24.5598C28.1551 24.9694 28.091 25.3791 27.9445 25.7623C27.798 26.1454 27.5723 26.4933 27.2822 26.7833C26.9921 27.0732 26.644 27.2988 26.2608 27.4451C25.8777 27.5915 25.4679 27.6553 25.0583 27.6325L23.5286 27.548C23.092 27.5239 22.6557 27.5984 22.2518 27.7657C21.8479 27.9331 21.4868 28.1891 21.1952 28.5148L20.1744 29.6553C19.9008 29.961 19.5658 30.2056 19.1913 30.3731C18.8167 30.5406 18.411 30.6271 18.0007 30.6271C17.5905 30.6271 17.1848 30.5406 16.8102 30.3731C16.4357 30.2056 16.1007 29.961 15.8271 29.6553L14.8063 28.5148C14.5145 28.1889 14.1532 27.9328 13.749 27.7654C13.3449 27.598 12.9082 27.5237 12.4715 27.548L10.9402 27.6325C10.5307 27.6551 10.1209 27.5911 9.73781 27.4445C9.35468 27.298 9.00677 27.0723 8.71679 26.7822C8.42682 26.4921 8.20129 26.1441 8.05495 25.7609C7.90861 25.3777 7.84474 24.9679 7.86751 24.5584L7.95209 23.0286C7.97611 22.5921 7.90169 22.1557 7.73433 21.7518C7.56697 21.348 7.31095 20.9869 6.98522 20.6953L5.8448 19.6744C5.53903 19.4008 5.29443 19.0658 5.12696 18.6913C4.95949 18.3167 4.87292 17.9111 4.87292 17.5008C4.87292 17.0905 4.95949 16.6848 5.12696 16.3103C5.29443 15.9357 5.53903 15.6007 5.8448 15.3271L6.98522 14.3063C7.31115 14.0145 7.56728 13.6532 7.73465 13.2491C7.90202 12.8449 7.97633 12.4083 7.95209 11.9715L7.86751 10.4403C7.84515 10.0308 7.90937 9.62125 8.05599 9.2383C8.20261 8.85535 8.42833 8.50762 8.71842 8.21781C9.00851 7.92799 9.35645 7.7026 9.73954 7.55634C10.1226 7.41009 10.5323 7.34625 10.9417 7.36901L12.4715 7.45359C12.908 7.47761 13.3443 7.40318 13.7482 7.23582C14.1521 7.06846 14.5132 6.81245 14.8048 6.48672L15.8256 5.3463L15.8271 5.34484Z" stroke="#0D0D0D" stroke-width="3"/>
<path d="M14.3542 13.8542H14.3688V13.8688H14.3542V13.8542ZM21.6459 21.1459H21.6604V21.1605H21.6459V21.1459Z" stroke="#0D0D0D" stroke-width="3" stroke-linejoin="round"/>
<path d="M22.375 13.125L13.625 21.875" stroke="#0D0D0D" stroke-width="3" stroke-linecap="round" stroke-linejoin="round"/>
</svg>
