<svg width="33" height="33" viewBox="0 0 33 33" fill="none" xmlns="http://www.w3.org/2000/svg">
<path d="M7.57692 16.5014V10.6345C7.59434 9.48124 7.83915 8.34279 8.29732 7.28431C8.75548 6.22586 9.41802 5.26821 10.2469 4.46623C11.0758 3.66427 12.0549 3.03373 13.1279 2.61077C14.2009 2.18781 15.3468 1.98073 16.5 2.00141C17.6532 1.98073 18.7991 2.18781 19.8721 2.61077C20.9451 3.03373 21.9242 3.66427 22.7531 4.46623C23.582 5.26821 24.2446 6.22586 24.7028 7.28431C25.1607 8.34279 25.4057 9.48124 25.4231 10.6345V16.5014" stroke="black" stroke-width="2.5" stroke-linecap="round" stroke-linejoin="round"/>
<path d="M4.23077 13.1555H6.46154C6.75736 13.1555 7.04107 13.273 7.25023 13.4822C7.45941 13.6914 7.57692 13.9751 7.57692 14.2709V20.9632C7.57692 21.259 7.45941 21.5427 7.25023 21.7519C7.04107 21.9611 6.75736 22.0786 6.46154 22.0786H4.23077C3.63912 22.0786 3.07173 21.8436 2.65338 21.4252C2.23503 21.0069 2 20.4395 2 19.8478V15.3863C2 14.7946 2.23503 14.2272 2.65338 13.8089C3.07173 13.3906 3.63912 13.1555 4.23077 13.1555Z" stroke="black" stroke-width="2.5" stroke-linecap="round" stroke-linejoin="round"/>
<path d="M28.7692 22.0786H26.5385C26.2427 22.0786 25.9589 21.9611 25.7497 21.7519C25.5406 21.5427 25.4231 21.259 25.4231 20.9632V14.2709C25.4231 13.9751 25.5406 13.6914 25.7497 13.4822C25.9589 13.273 26.2427 13.1555 26.5385 13.1555H28.7692C29.3608 13.1555 29.9283 13.3906 30.3466 13.8089C30.7649 14.2272 31 14.7946 31 15.3863V19.8478C31 20.4395 30.7649 21.0069 30.3466 21.4252C29.9283 21.8436 29.3608 22.0786 28.7692 22.0786Z" stroke="black" stroke-width="2.5" stroke-linecap="round" stroke-linejoin="round"/>
<path d="M20.9615 28.2132C22.1448 28.2132 23.2795 27.7432 24.1163 26.9064C24.9531 26.0696 25.4231 24.9349 25.4231 23.7517V18.7324" stroke="black" stroke-width="2.5" stroke-linecap="round" stroke-linejoin="round"/>
<path d="M20.9615 28.2133C20.9615 28.9528 20.6677 29.6621 20.1448 30.185C19.6219 30.7079 18.9126 31.0017 18.1731 31.0017H14.8269C14.0874 31.0017 13.3781 30.7079 12.8552 30.185C12.3323 29.6621 12.0385 28.9528 12.0385 28.2133C12.0385 27.4738 12.3323 26.7644 12.8552 26.2415C13.3781 25.7186 14.0874 25.4248 14.8269 25.4248H18.1731C18.9126 25.4248 19.6219 25.7186 20.1448 26.2415C20.6677 26.7644 20.9615 27.4738 20.9615 28.2133Z" stroke="black" stroke-width="2.5" stroke-linecap="round" stroke-linejoin="round"/>
</svg>
