<svg width="47" height="48" viewBox="0 0 47 48" fill="none" xmlns="http://www.w3.org/2000/svg">
<g filter="url(#filter0_i_0_389)">
<ellipse cx="23.5" cy="23.6259" rx="18.6893" ry="18.5896" transform="rotate(-90 23.5 23.6259)" fill="black"/>
</g>
<path d="M29.6858 17.1529C29.4355 17.1529 29.1907 17.2272 28.9825 17.3663C28.7744 17.5053 28.6121 17.7031 28.5163 17.9344C28.4205 18.1657 28.3954 18.4202 28.4443 18.6658C28.4931 18.9113 28.6137 19.1369 28.7907 19.3139C28.9677 19.491 29.1933 19.6115 29.4389 19.6604C29.6844 19.7092 29.9389 19.6841 30.1703 19.5883C30.4016 19.4925 30.5993 19.3303 30.7384 19.1221C30.8775 18.9139 30.9517 18.6692 30.9517 18.4188C30.9517 18.0831 30.8183 17.7611 30.5809 17.5237C30.3435 17.2863 30.0216 17.1529 29.6858 17.1529ZM34.5384 19.7058C34.5179 18.8305 34.354 17.9646 34.0531 17.1424C33.7849 16.4389 33.3674 15.8019 32.8294 15.2752C32.3071 14.7345 31.6686 14.3196 30.9623 14.062C30.1422 13.7521 29.2753 13.5844 28.3988 13.5662C27.2806 13.5029 26.922 13.5029 24.0526 13.5029C21.1833 13.5029 20.8246 13.5029 19.7064 13.5662C18.8299 13.5844 17.963 13.7521 17.143 14.062C16.438 14.3222 15.8 14.7367 15.2758 15.2752C14.7351 15.7975 14.3202 16.436 14.0626 17.1424C13.7527 17.9624 13.585 18.8293 13.5668 19.7058C13.5035 20.824 13.5035 21.1827 13.5035 24.052C13.5035 26.9214 13.5035 27.28 13.5668 28.3982C13.585 29.2747 13.7527 30.1416 14.0626 30.9616C14.3202 31.668 14.7351 32.3065 15.2758 32.8288C15.8 33.3673 16.438 33.7818 17.143 34.042C17.963 34.352 18.8299 34.5196 19.7064 34.5378C20.8246 34.6011 21.1833 34.6011 24.0526 34.6011C26.922 34.6011 27.2806 34.6011 28.3988 34.5378C29.2753 34.5196 30.1422 34.352 30.9623 34.042C31.6686 33.7844 32.3071 33.3696 32.8294 32.8288C33.3698 32.3041 33.7877 31.6665 34.0531 30.9616C34.354 30.1395 34.5179 29.2735 34.5384 28.3982C34.5384 27.28 34.6017 26.9214 34.6017 24.052C34.6017 21.1827 34.6017 20.824 34.5384 19.7058ZM32.6396 28.2716C32.6319 28.9413 32.5106 29.6047 32.2809 30.2338C32.1125 30.6929 31.8419 31.1077 31.4897 31.4469C31.1476 31.7956 30.7336 32.0655 30.2766 32.2381C29.6475 32.4678 28.9841 32.5891 28.3144 32.5968C27.2595 32.6495 26.8692 32.6601 24.0948 32.6601C21.3204 32.6601 20.9301 32.6601 19.8752 32.5968C19.1799 32.6098 18.4876 32.5027 17.8287 32.2803C17.3917 32.0989 16.9967 31.8296 16.6683 31.4891C16.3181 31.1502 16.051 30.735 15.8876 30.276C15.6301 29.6379 15.4872 28.9594 15.4657 28.2716C15.4657 27.2167 15.4024 26.8264 15.4024 24.052C15.4024 21.2776 15.4024 20.8873 15.4657 19.8324C15.4704 19.1478 15.5954 18.4694 15.8349 17.8281C16.0206 17.3828 16.3057 16.9859 16.6683 16.6677C16.9888 16.3049 17.3848 16.0169 17.8287 15.8237C18.4717 15.5917 19.1494 15.4704 19.833 15.4651C20.8879 15.4651 21.2782 15.4018 24.0526 15.4018C26.827 15.4018 27.2173 15.4018 28.2722 15.4651C28.9419 15.4727 29.6053 15.594 30.2344 15.8237C30.7138 16.0016 31.144 16.2909 31.4897 16.6677C31.8354 16.9917 32.1055 17.3879 32.2809 17.8281C32.5154 18.4704 32.6367 19.1486 32.6396 19.8324C32.6923 20.8873 32.7029 21.2776 32.7029 24.052C32.7029 26.8264 32.6923 27.2167 32.6396 28.2716ZM24.0526 18.6403C22.9827 18.6424 21.9375 18.9616 21.0489 19.5575C20.1604 20.1534 19.4684 20.9993 19.0604 21.9883C18.6524 22.9774 18.5468 24.0652 18.7568 25.1142C18.9668 26.1633 19.483 27.1266 20.2403 27.8824C20.9975 28.6381 21.9618 29.1525 23.0113 29.3605C24.0607 29.5684 25.1483 29.4606 26.1366 29.0507C27.1248 28.6408 27.9694 27.9472 28.5635 27.0575C29.1577 26.1678 29.4748 25.1219 29.4748 24.052C29.4762 23.3401 29.3369 22.6348 29.0647 21.977C28.7926 21.3191 28.3931 20.7215 27.8892 20.2185C27.3853 19.7156 26.7869 19.3172 26.1285 19.0464C25.47 18.7755 24.7646 18.6375 24.0526 18.6403ZM24.0526 27.5648C23.3578 27.5648 22.6787 27.3588 22.101 26.9728C21.5233 26.5868 21.0731 26.0382 20.8072 25.3963C20.5413 24.7544 20.4717 24.0481 20.6073 23.3667C20.7428 22.6853 21.0774 22.0593 21.5687 21.5681C22.0599 21.0768 22.6859 20.7422 23.3673 20.6067C24.0487 20.4711 24.755 20.5407 25.3969 20.8066C26.0388 21.0724 26.5874 21.5227 26.9734 22.1004C27.3594 22.6781 27.5655 23.3572 27.5655 24.052C27.5655 24.5133 27.4746 24.9701 27.2981 25.3963C27.1215 25.8225 26.8628 26.2098 26.5366 26.536C26.2104 26.8622 25.8231 27.1209 25.3969 27.2974C24.9707 27.474 24.5139 27.5648 24.0526 27.5648Z" fill="#F5F5F5"/>
<defs>
<filter id="filter0_i_0_389" x="4.9104" y="4.93677" width="42.0896" height="37.3784" filterUnits="userSpaceOnUse" color-interpolation-filters="sRGB">
<feFlood flood-opacity="0" result="BackgroundImageFix"/>
<feBlend mode="normal" in="SourceGraphic" in2="BackgroundImageFix" result="shape"/>
<feColorMatrix in="SourceAlpha" type="matrix" values="0 0 0 0 0 0 0 0 0 0 0 0 0 0 0 0 0 0 127 0" result="hardAlpha"/>
<feOffset dx="4.91045"/>
<feGaussianBlur stdDeviation="7.01493"/>
<feComposite in2="hardAlpha" operator="arithmetic" k2="-1" k3="1"/>
<feColorMatrix type="matrix" values="0 0 0 0 1 0 0 0 0 1 0 0 0 0 1 0 0 0 0.15 0"/>
<feBlend mode="normal" in2="shape" result="effect1_innerShadow_0_389"/>
</filter>
</defs>
</svg>
