<svg width="35" height="35" viewBox="0 0 35 35" fill="none" xmlns="http://www.w3.org/2000/svg">
<path d="M8.32072 2.18751C8.27536 2.18709 8.2306 2.19797 8.19049 2.21916C8.15038 2.24035 8.11617 2.27118 8.09094 2.30888C8.06572 2.34659 8.05027 2.38998 8.04599 2.43514C8.04171 2.4803 8.04873 2.52582 8.06642 2.56759L8.22365 2.93878L11.0059 9.42609C11.0248 9.47021 11.055 9.50858 11.0934 9.53733C11.1319 9.56609 11.1772 9.58422 11.2248 9.5899C11.2725 9.59558 11.3208 9.58861 11.365 9.5697C11.4091 9.55078 11.4474 9.52058 11.4762 9.48214L16.6113 2.62501C16.6418 2.58439 16.6604 2.53608 16.6649 2.48551C16.6695 2.43493 16.6599 2.38408 16.6372 2.33866C16.6145 2.29324 16.5795 2.25505 16.5364 2.22835C16.4932 2.20165 16.4434 2.18751 16.3926 2.18751H8.32072ZM28.7062 3.96896L25.8843 10.5567C25.8665 10.5983 25.8594 10.6437 25.8635 10.6887C25.8675 10.7338 25.8827 10.7771 25.9076 10.8148C25.9326 10.8525 25.9665 10.8835 26.0063 10.9049C26.0461 10.9263 26.0906 10.9375 26.1359 10.9375H33.0402C33.0889 10.9375 33.1368 10.9245 33.1788 10.8998C33.2208 10.8751 33.2555 10.8396 33.2792 10.797C33.3029 10.7544 33.3148 10.7063 33.3136 10.6575C33.3125 10.6088 33.2983 10.5613 33.2726 10.5198L29.1895 3.93273C29.1631 3.89032 29.1256 3.85594 29.0811 3.83334C29.0365 3.81073 28.9867 3.80075 28.9369 3.80448C28.887 3.80822 28.8392 3.82552 28.7985 3.85452C28.7579 3.88351 28.7259 3.92309 28.7062 3.96896ZM5.81056 3.93546L1.72883 10.5198C1.70311 10.5613 1.68893 10.6088 1.68777 10.6575C1.6866 10.7063 1.69849 10.7544 1.72219 10.797C1.7459 10.8396 1.78056 10.8751 1.82259 10.8998C1.86463 10.9245 1.9125 10.9375 1.96125 10.9375H8.86555C8.91079 10.9375 8.95532 10.9262 8.99514 10.9047C9.03495 10.8832 9.06881 10.8521 9.09368 10.8143C9.11854 10.7765 9.13364 10.7331 9.13761 10.6881C9.14158 10.643 9.1343 10.5976 9.11642 10.5561L6.28908 3.97169C6.26886 3.92696 6.23697 3.88851 6.19676 3.86035C6.15656 3.8322 6.10951 3.81538 6.06057 3.81168C6.01162 3.80797 5.96258 3.81751 5.91859 3.83929C5.8746 3.86107 5.83729 3.89429 5.81056 3.93546ZM26.8837 2.18751H18.308C18.2833 2.18735 18.259 2.19412 18.2379 2.20705C18.2168 2.21997 18.1997 2.23855 18.1886 2.26067C18.1775 2.28278 18.1728 2.30757 18.1751 2.33221C18.1774 2.35685 18.1865 2.38037 18.2014 2.40011L23.6647 9.67765C23.6786 9.69634 23.6972 9.71103 23.7187 9.72023C23.7401 9.72942 23.7636 9.73281 23.7867 9.73003C23.8099 9.72726 23.8319 9.71843 23.8506 9.70443C23.8692 9.69043 23.8839 9.67176 23.893 9.6503L26.7696 2.93946L27.002 2.36935C27.0102 2.34978 27.0135 2.32852 27.0117 2.30738C27.0098 2.28624 27.0029 2.26587 26.9915 2.24799C26.9801 2.23012 26.9645 2.21528 26.9461 2.20474C26.9277 2.19421 26.907 2.1883 26.8858 2.18751H26.8837ZM16.3379 30.625L10.2245 13.2966C10.2066 13.2463 10.1735 13.2028 10.1298 13.172C10.0861 13.1413 10.0339 13.1249 9.98049 13.125H1.75685C1.70922 13.1249 1.6625 13.1381 1.62202 13.1632C1.58155 13.1884 1.54894 13.2244 1.52792 13.2671C1.5069 13.3099 1.49832 13.3577 1.50314 13.405C1.50796 13.4524 1.526 13.4975 1.55519 13.5352L16.3208 32.6628C16.3708 32.7275 16.4421 32.7725 16.5221 32.7896C16.602 32.8068 16.6855 32.795 16.7576 32.7565C16.8302 32.7183 16.8866 32.6553 16.9166 32.579C16.9466 32.5027 16.9482 32.4182 16.921 32.3408L16.3379 30.625ZM33.2432 13.125H25.0196C24.9664 13.125 24.9146 13.1415 24.8712 13.1722C24.8279 13.203 24.7951 13.2464 24.7776 13.2966L18.0647 32.3114C18.0365 32.3913 18.0376 32.4785 18.068 32.5576C18.0983 32.6366 18.1558 32.7023 18.2301 32.7428C18.3045 32.7831 18.3907 32.7956 18.4735 32.7782C18.5562 32.7608 18.6301 32.7146 18.682 32.6478L33.4448 13.5352C33.474 13.4975 33.4921 13.4524 33.4969 13.405C33.5017 13.3577 33.4931 13.3099 33.4721 13.2671C33.4511 13.2244 33.4185 13.1884 33.378 13.1632C33.3375 13.1381 33.2908 13.1249 33.2432 13.125ZM17.7188 5.39562L21.5469 10.5C21.5774 10.5406 21.5959 10.5889 21.6005 10.6395C21.605 10.6901 21.5954 10.7409 21.5727 10.7864C21.55 10.8318 21.5151 10.87 21.4719 10.8967C21.4287 10.9234 21.3789 10.9375 21.3281 10.9375H13.6719C13.6211 10.9375 13.5713 10.9234 13.5281 10.8967C13.4849 10.87 13.45 10.8318 13.4273 10.7864C13.4046 10.7409 13.395 10.6901 13.3996 10.6395C13.4041 10.5889 13.4227 10.5406 13.4531 10.5L17.2813 5.39562C17.3067 5.36166 17.3398 5.33409 17.3777 5.31511C17.4157 5.29613 17.4576 5.28624 17.5 5.28624C17.5425 5.28624 17.5843 5.29613 17.6223 5.31511C17.6603 5.33409 17.6933 5.36166 17.7188 5.39562ZM17.2403 26.6082L12.6123 13.4894C12.5978 13.4481 12.5934 13.404 12.5994 13.3607C12.6054 13.3175 12.6217 13.2762 12.647 13.2405C12.6722 13.2049 12.7056 13.1757 12.7444 13.1556C12.7833 13.1355 12.8263 13.125 12.87 13.125H22.13C22.1737 13.125 22.2168 13.1355 22.2556 13.1556C22.2944 13.1757 22.3278 13.2049 22.3531 13.2405C22.3783 13.2762 22.3946 13.3175 22.4007 13.3607C22.4067 13.404 22.4022 13.4481 22.3877 13.4894L17.7577 26.6082C17.7388 26.6615 17.7039 26.7076 17.6578 26.7402C17.6116 26.7728 17.5565 26.7903 17.5 26.7903C17.4435 26.7903 17.3884 26.7728 17.3423 26.7402C17.2961 26.7076 17.2612 26.6615 17.2423 26.6082H17.2403Z" fill="#0D0D0D"/>
</svg>
