<svg width="60" height="60" viewBox="0 0 60 60" fill="none" xmlns="http://www.w3.org/2000/svg">
<g clip-path="url(#clip0_0_308)">
<g clip-path="url(#clip1_0_308)">
<path d="M38.7675 31.7463V55.0716C38.7675 56.0691 37.6453 56.6926 36.7725 56.0691L30.0394 51.2063L23.3063 56.0691C22.4335 56.6926 21.3113 56.0691 21.3113 55.0716V31.7463H38.7675Z" fill="white"/>
<path d="M30.0394 38.7374C39.6802 38.7374 47.4956 30.922 47.4956 21.2812C47.4956 11.6403 39.6802 3.82495 30.0394 3.82495C20.3986 3.82495 12.5831 11.6403 12.5831 21.2812C12.5831 30.922 20.3986 38.7374 30.0394 38.7374Z" fill="#167989" fill-opacity="0.1"/>
<path d="M31.2863 12.8026L32.5332 16.6679C32.6579 17.1666 33.1566 17.5407 33.7801 17.5407H37.7701C39.017 17.5407 39.5157 19.037 38.5182 19.7851L35.2763 22.1542C34.7776 22.5282 34.6529 23.027 34.7776 23.5257L36.0244 27.391C36.3985 28.5132 35.0269 29.5107 34.1541 28.7626L30.9123 26.3935C30.4135 26.0195 29.9148 26.0195 29.416 26.3935L26.1741 28.7626C25.1766 29.5107 23.9297 28.5132 24.3038 27.391L25.5507 23.5257C25.6754 23.027 25.5507 22.4036 25.0519 22.1542L21.8101 19.7851C20.8126 19.037 21.3113 17.5407 22.5582 17.5407H26.5482C27.047 17.5407 27.5457 17.1666 27.7951 16.6679L29.042 12.8026C29.1666 11.6804 30.9123 11.6804 31.2863 12.8026Z" fill="white"/>
<path d="M13.293 27.5104C13.9832 27.5104 14.5428 26.9508 14.5428 26.2605C14.5428 25.5703 13.9832 25.0107 13.293 25.0107C12.6027 25.0107 12.0431 25.5703 12.0431 26.2605C12.0431 26.9508 12.6027 27.5104 13.293 27.5104Z" fill="#167989"/>
<path fill-rule="evenodd" clip-rule="evenodd" d="M20.2562 37.3074C17.5349 35.5865 15.2875 33.1853 13.7542 30.3414C13.4266 29.7348 13.6542 28.9757 14.262 28.648C14.8698 28.3204 15.6289 28.5467 15.9566 29.1545C18.6967 34.2358 24.0669 37.6913 30.24 37.6913C39.1907 37.6913 46.4567 30.4252 46.4567 21.4757C46.4567 17.3824 44.9372 13.6418 42.431 10.7866C41.9757 10.2689 42.0284 9.47718 42.5461 9.02195C43.0651 8.56672 43.8568 8.61801 44.312 9.13702C47.2034 12.4325 48.958 16.7509 48.958 21.4757C48.958 28.1366 45.4701 33.9895 40.2237 37.3074V50.2501C40.2237 50.9404 39.6633 51.5007 38.973 51.5007C38.2826 51.5007 37.7225 50.9404 37.7225 50.2501V38.6356C35.4312 39.6373 32.9 40.1926 30.24 40.1926C27.5798 40.1926 25.0485 39.6373 22.7575 38.6356V55.2864C22.7575 55.2789 22.77 55.2688 22.7763 55.2663L29.5084 50.4052C29.9447 50.0888 30.535 50.0888 30.9715 50.4052C30.9715 50.4052 37.7099 55.2714 37.7037 55.2676C37.7149 55.2751 37.7225 55.2989 37.7225 55.2864V54.002C37.7225 53.3116 38.2826 52.7514 38.973 52.7514C39.6633 52.7514 40.2237 53.3116 40.2237 54.002V55.2864C40.2237 57.2799 37.9937 58.548 36.2505 57.3024L36.2454 57.2986L30.24 52.9615L24.2345 57.2986L24.2295 57.3024C22.4861 58.548 20.2562 57.2799 20.2562 55.2864V37.3074ZM14.0656 22.6475C14.1144 23.3354 13.5954 23.9345 12.9075 23.9832C12.2185 24.0333 11.6193 23.5143 11.5705 22.8252C11.538 22.3799 11.5219 21.9297 11.5219 21.4757C11.5219 11.1443 19.9097 2.75757 30.24 2.75757C34.2269 2.75757 37.925 4.00697 40.9627 6.13553C41.528 6.53073 41.6656 7.31112 41.2691 7.8764C40.8727 8.44168 40.0924 8.57925 39.5271 8.18405C36.8958 6.34063 33.6929 5.25882 30.24 5.25882C21.2892 5.25882 14.0231 12.525 14.0231 21.4757C14.0231 21.8697 14.0381 22.2598 14.0656 22.6475ZM26.7069 16.482C26.7282 16.4645 26.7983 16.4057 26.8458 16.3457C26.8458 16.3457 28.0189 12.7076 28.0189 12.7126C28.1789 11.7558 28.8555 11.1643 29.6884 10.9667C30.8127 10.6991 32.2285 11.2569 32.6762 12.6013L33.9243 16.472C33.9418 16.477 33.9656 16.482 33.9831 16.482H37.9751C39.2157 16.482 40.0686 17.2486 40.3787 18.1791C40.6889 19.1095 40.4662 20.2338 39.4683 20.983C39.4683 20.983 36.228 23.3504 36.2205 23.3567C36.2055 23.3704 36.1942 23.3854 36.193 23.4042C36.193 23.4042 37.4185 27.2048 37.4147 27.1936C37.7911 28.3204 37.3122 29.3922 36.4981 29.9862C35.6564 30.6015 34.4971 30.6966 33.5866 29.9474L30.3687 27.5963L30.365 27.5925L30.36 27.5963L27.1121 29.9687C25.0886 31.4732 22.5561 29.4672 23.3103 27.2048C23.3103 27.2048 24.5384 23.3992 24.5384 23.3942C24.5396 23.3892 24.5396 23.3842 24.5396 23.3792L21.2617 20.983L21.2555 20.9792C20.2625 20.2339 20.041 19.1095 20.3512 18.1791C20.6613 17.2486 21.5131 16.482 22.7537 16.482H26.7069ZM22.7637 18.9832C22.9488 19.1195 25.9215 21.2906 25.9165 21.2881C26.8682 21.8347 27.2108 23.0277 26.962 24.0245L26.9521 24.0645L25.7176 27.8914C26.2391 27.51 28.8755 25.5828 28.8755 25.5828C29.3682 25.2163 29.871 25.0588 30.365 25.0588C30.8577 25.0588 31.3605 25.2163 31.8545 25.5828L35.0124 27.8902L33.778 24.0645L33.768 24.0245C33.5254 23.0528 33.7579 22.0773 34.736 21.3431C34.736 21.3431 37.6887 19.1858 37.965 18.9832H33.9831C32.7475 18.9832 31.8008 18.1891 31.5344 17.2111L30.365 13.5843L29.1557 17.3336L29.1131 17.4187C28.6479 18.3479 27.6761 18.9832 26.747 18.9832H22.7637Z" fill="#167989"/>
</g>
</g>
<defs>
<clipPath id="clip0_0_308">
<rect width="60" height="60" fill="white"/>
</clipPath>
<clipPath id="clip1_0_308">
<rect width="60" height="60" fill="white"/>
</clipPath>
</defs>
</svg>
