<svg width="60" height="60" viewBox="0 0 60 60" fill="none" xmlns="http://www.w3.org/2000/svg">
<g clip-path="url(#clip0_0_266)">
<g clip-path="url(#clip1_0_266)">
<path fill-rule="evenodd" clip-rule="evenodd" d="M56.3682 31.1816C56.3682 31.9958 55.8417 32.7174 55.0663 32.9663C53.2817 33.4978 51.991 35.1586 51.991 37.1184C51.991 39.0781 53.2817 40.7389 55.0575 41.2954C55.8217 41.5418 56.3407 42.2522 56.3407 43.0551C56.3682 43.9093 56.3682 44.9735 56.3682 45.8727C56.3682 46.9082 55.5278 47.7487 54.4923 47.7487C46.3219 47.7487 13.8882 47.7487 5.71789 47.7487C4.68237 47.7487 3.84195 46.9082 3.84195 45.8727C3.84195 44.9735 3.84195 43.9093 3.84195 43.0551C3.84195 42.2409 4.36846 41.5193 5.14385 41.2704C6.92849 40.7389 8.21914 39.0781 8.21914 37.1184C8.21914 35.1586 6.9285 33.4978 5.15261 32.9413C4.38848 32.6949 3.86947 31.9845 3.86947 31.1816C3.84195 30.5813 3.84195 29.8985 3.84195 29.2982C3.84195 28.484 4.36846 27.7624 5.14385 27.5136C6.92849 26.982 8.21914 25.3212 8.21914 23.3615C8.21914 21.4017 6.9285 19.7409 5.15261 19.1844C4.38848 18.938 3.86947 18.2276 3.86947 17.4247C3.84195 16.5706 3.84195 15.5063 3.84195 14.6071C3.84195 13.5716 4.68237 12.7312 5.71789 12.7312H54.4923C55.5278 12.7312 56.3682 13.5716 56.3682 14.6071V17.4247C56.3682 18.2389 55.8417 18.9605 55.0663 19.2094C53.2817 19.7409 51.991 21.4017 51.991 23.3615C51.991 25.3212 53.2817 26.982 55.0575 27.5386C55.8217 27.7849 56.3407 28.4953 56.3407 29.2982C56.3682 29.8985 56.3682 30.5813 56.3682 31.1816Z" fill="#167989" fill-opacity="0.1"/>
<path fill-rule="evenodd" clip-rule="evenodd" d="M32.1639 23.6148C32.5091 23.0842 33.1001 22.7646 33.7332 22.7646C34.3664 22.7646 34.9573 23.0842 35.3025 23.6148C35.6357 24.1229 35.9568 24.6158 36.195 24.9806C36.4467 25.365 36.8311 25.6439 37.2743 25.7645C37.6949 25.8776 38.2617 26.0314 38.8482 26.1912C39.4602 26.3555 39.9456 26.8183 40.1416 27.4213C40.3376 28.0228 40.2155 28.683 39.819 29.176C39.4376 29.6493 39.0683 30.1077 38.7954 30.4468C38.5075 30.8041 38.3612 31.2563 38.3839 31.7161C38.405 32.1503 38.4336 32.7382 38.4637 33.3443C38.4954 33.9774 38.206 34.5819 37.6934 34.9543C37.1824 35.3266 36.516 35.4156 35.9251 35.1894C35.3568 34.9739 34.8065 34.7643 34.401 34.609C33.9699 34.4462 33.4965 34.4462 33.0654 34.609C32.6599 34.7643 32.1096 34.9739 31.5413 35.1894C30.9504 35.4156 30.2841 35.3266 29.773 34.9543C29.2605 34.5819 28.971 33.9774 29.0027 33.3443C29.0328 32.7382 29.0615 32.1503 29.0826 31.7161C29.1052 31.2563 28.959 30.8041 28.671 30.4468C28.3982 30.1077 28.0288 29.6493 27.6474 29.176C27.251 28.683 27.1288 28.0228 27.3248 27.4213C27.5208 26.8183 28.0062 26.3555 28.6183 26.1912C29.2047 26.0314 29.7715 25.8776 30.1921 25.7645C30.6353 25.6439 31.0197 25.365 31.2715 24.9806C31.5097 24.6158 31.8307 24.1229 32.1639 23.6148Z" fill="white"/>
<path fill-rule="evenodd" clip-rule="evenodd" d="M22.6013 46.4982C23.2917 46.4982 23.8519 47.0584 23.8519 47.7488C23.8519 48.4391 23.2917 48.9994 22.6013 48.9994C21.911 48.9994 21.3507 48.4391 21.3507 47.7488C21.3507 47.0584 21.911 46.4982 22.6013 46.4982ZM52.6163 13.9819H54.4922C54.8374 13.9819 55.1176 14.262 55.1176 14.6072V17.4249C55.1176 17.6875 54.9525 17.9214 54.7074 18.0114C52.4049 18.7017 50.7404 20.8378 50.7404 23.3616C50.7404 25.8803 52.4 28.0152 54.6836 28.7318C54.9225 28.8093 55.09 29.0394 55.09 29.2983C55.09 29.3183 55.09 29.3371 55.0913 29.3558C55.1176 29.9374 55.1176 30.6002 55.1176 31.1817C55.1176 31.4444 54.9525 31.6782 54.7074 31.7683C52.4049 32.4586 50.7404 34.5947 50.7404 37.1185C50.7404 39.6372 52.4 41.772 54.6836 42.4887C54.9225 42.5662 55.09 42.7963 55.09 43.0552V43.0965C55.1176 43.9381 55.1176 44.9861 55.1176 45.8728C55.1176 46.218 54.8374 46.4982 54.4922 46.4982H26.3532C25.6628 46.4982 25.1026 47.0584 25.1026 47.7488C25.1026 48.4391 25.6628 48.9994 26.3532 48.9994H54.4922C56.2194 48.9994 57.6188 47.6 57.6188 45.8728C57.6188 44.9649 57.6188 43.8906 57.5913 43.0252C57.5813 41.6957 56.7146 40.5152 55.4402 40.105C55.4377 40.105 55.4352 40.1037 55.4327 40.1024C54.1633 39.7047 53.2416 38.5179 53.2416 37.1185C53.2416 35.7265 54.1546 34.5434 55.4227 34.1657C55.4315 34.1632 55.4402 34.1607 55.449 34.157C56.7421 33.7418 57.6188 32.5399 57.6188 31.1817C57.6188 30.5727 57.6188 29.8798 57.5913 29.2683C57.5775 27.9351 56.7121 26.757 55.4402 26.3481C55.4377 26.3481 55.4352 26.3468 55.4327 26.3456C54.1633 25.9479 53.2416 24.761 53.2416 23.3616C53.2416 21.9696 54.1546 20.7866 55.4227 20.4089C55.4315 20.4064 55.4402 20.4038 55.449 20.4001C56.7421 19.9849 57.6188 18.783 57.6188 17.4249V14.6072C57.6188 12.8801 56.2194 11.4807 54.4922 11.4807H52.6163C51.926 11.4807 51.3657 12.0409 51.3657 12.7313C51.3657 13.4216 51.926 13.9819 52.6163 13.9819ZM17.5988 46.4982V43.3616C17.5988 42.6712 17.0385 42.111 16.3482 42.111C15.6578 42.111 15.0976 42.6712 15.0976 43.3616V46.4982H5.71787C5.3727 46.4982 5.09256 46.218 5.09256 45.8728V43.0552C5.09256 42.7926 5.25764 42.5587 5.50277 42.4687C7.80517 41.7783 9.46975 39.6422 9.46975 37.1185C9.46975 34.5997 7.81017 32.4649 5.52653 31.7483C5.28766 31.6707 5.12008 31.4406 5.12008 31.1817C5.12008 31.1617 5.12007 31.143 5.11882 31.1242C5.09255 30.5427 5.09256 29.8799 5.09256 29.2983C5.09256 29.0357 5.25764 28.8018 5.50277 28.7118C7.80517 28.0214 9.46975 25.8854 9.46975 23.3616C9.46975 20.8428 7.81017 18.708 5.52653 17.9914C5.28766 17.9139 5.12008 17.6837 5.12008 17.4249C5.12008 17.4111 5.12008 17.3974 5.12008 17.3836C5.09256 16.5419 5.09256 15.4939 5.09256 14.6072C5.09256 14.262 5.3727 13.9819 5.71787 13.9819H15.0976V18.3491C15.0976 19.0394 15.6578 19.5997 16.3482 19.5997C17.0385 19.5997 17.5988 19.0394 17.5988 18.3491V13.9819H48.8644C49.5548 13.9819 50.1151 13.4216 50.1151 12.7313C50.1151 12.0409 49.5548 11.4807 48.8644 11.4807C48.8644 11.4807 12.5463 11.4807 5.71787 11.4807C3.99076 11.4807 2.59131 12.8801 2.59131 14.6072C2.59131 15.5152 2.59131 16.5895 2.61883 17.4549C2.62883 18.7843 3.49552 19.9649 4.7699 20.3751C4.7724 20.3751 4.7749 20.3764 4.7774 20.3776C6.04679 20.7753 6.9685 21.9621 6.9685 23.3616C6.9685 24.7535 6.05554 25.9366 4.7874 26.3143C4.77865 26.3168 4.7699 26.3193 4.76114 26.3231C3.468 26.7383 2.59131 27.9401 2.59131 29.2983C2.59131 29.9074 2.59131 30.6002 2.61883 31.2118C2.63258 32.5449 3.49802 33.723 4.7699 34.132C4.7724 34.132 4.7749 34.1332 4.7774 34.1345C6.04679 34.5322 6.9685 35.719 6.9685 37.1185C6.9685 38.5104 6.05554 39.6935 4.7874 40.0712C4.77865 40.0737 4.7699 40.0762 4.76114 40.08C3.468 40.4952 2.59131 41.697 2.59131 43.0552V45.8728C2.59131 47.6 3.99076 48.9994 5.71787 48.9994H18.8494C19.5398 48.9994 20.1001 48.4391 20.1001 47.7488C20.1001 47.0584 19.5398 46.4982 18.8494 46.4982H17.5988ZM15.0976 33.3566V38.3591C15.0976 39.0494 15.6578 39.6097 16.3482 39.6097C17.0385 39.6097 17.5988 39.0494 17.5988 38.3591V33.3566C17.5988 32.6662 17.0385 32.106 16.3482 32.106C15.6578 32.106 15.0976 32.6662 15.0976 33.3566ZM15.0976 23.3516V28.3541C15.0976 29.0444 15.6578 29.6047 16.3482 29.6047C17.0385 29.6047 17.5988 29.0444 17.5988 28.3541V23.3516C17.5988 22.6612 17.0385 22.101 16.3482 22.101C15.6578 22.101 15.0976 22.6612 15.0976 23.3516Z" fill="#167989"/>
<path fill-rule="evenodd" clip-rule="evenodd" d="M31.2226 23.1675L30.3297 24.534C30.2452 24.6622 30.117 24.7557 29.9692 24.7949L28.3946 25.2218C27.375 25.4978 26.5651 26.27 26.2378 27.2745C25.912 28.2775 26.1141 29.3785 26.7762 30.2005L27.8004 31.472C27.8969 31.5911 27.9452 31.7419 27.9376 31.8943L27.8562 33.5247C27.8049 34.5789 28.2875 35.5895 29.1412 36.2094C29.9964 36.8293 31.1049 36.9771 32.0913 36.6015L33.6162 36.0208C33.761 35.9665 33.9178 35.9665 34.0611 36.0208L35.5875 36.6015C36.5739 36.9771 37.6824 36.8293 38.5376 36.2094C39.3913 35.5895 39.8739 34.5789 39.8226 33.5247L39.7412 31.8943C39.7336 31.7419 39.7819 31.5911 39.8784 31.472L40.9025 30.2005C41.5647 29.3785 41.7668 28.2775 41.441 27.2745C41.1137 26.27 40.3038 25.4978 39.2842 25.2218L37.7096 24.7949C37.5618 24.7557 37.4336 24.6622 37.3491 24.534L36.4562 23.1675C35.8801 22.2837 34.8952 21.7512 33.8394 21.7512C32.7836 21.7512 31.7987 22.2837 31.2226 23.1675ZM33.316 24.5355C33.4322 24.359 33.6282 24.252 33.8394 24.252C34.0506 24.252 34.2466 24.359 34.3628 24.5355L35.2556 25.902C35.6749 26.5445 36.316 27.009 37.055 27.2096L38.6311 27.6365C38.8347 27.6923 38.9961 27.8461 39.061 28.0467C39.1273 28.2473 39.0866 28.4675 38.9539 28.6319L37.9298 29.9034C37.4502 30.5006 37.2043 31.2533 37.2435 32.0195L37.3235 33.6484C37.334 33.8595 37.2375 34.0616 37.0671 34.1853C36.8966 34.3105 36.6749 34.3392 36.4773 34.2637L34.9525 33.6831C34.2346 33.4116 33.4442 33.4116 32.7263 33.6831L31.2015 34.2637C31.0039 34.3392 30.7822 34.3105 30.6117 34.1853C30.4413 34.0616 30.3448 33.8595 30.3553 33.6484L30.4353 32.0195C30.4745 31.2533 30.2286 30.5006 29.749 29.9034L28.7249 28.6319C28.5922 28.4675 28.5515 28.2473 28.6178 28.0467C28.6827 27.8461 28.8441 27.6923 29.0477 27.6365L30.6238 27.2096C31.3628 27.009 32.0039 26.5445 32.4232 25.902L33.316 24.5355Z" fill="#167989"/>
</g>
</g>
<defs>
<clipPath id="clip0_0_266">
<rect width="60" height="60" fill="white"/>
</clipPath>
<clipPath id="clip1_0_266">
<rect width="60" height="60" fill="white"/>
</clipPath>
</defs>
</svg>
