<svg width="47" height="48" viewBox="0 0 47 48" fill="none" xmlns="http://www.w3.org/2000/svg">
<g filter="url(#filter0_i_0_412)">
<ellipse cx="23.5" cy="23.6259" rx="18.6893" ry="18.5896" transform="rotate(-90 23.5 23.6259)" fill="black"/>
</g>
<g clip-path="url(#clip0_0_412)">
<path d="M23 16C23.855 16 24.732 16.022 25.582 16.058L26.586 16.106L27.547 16.163L28.447 16.224L29.269 16.288C30.161 16.3563 31.0004 16.7369 31.6395 17.363C32.2786 17.9891 32.6764 18.8205 32.763 19.711L32.803 20.136L32.878 21.046C32.948 21.989 33 23.017 33 24C33 24.983 32.948 26.011 32.878 26.954L32.803 27.864C32.79 28.01 32.777 28.151 32.763 28.289C32.6764 29.1796 32.2784 30.0112 31.6391 30.6373C30.9999 31.2634 30.1602 31.6439 29.268 31.712L28.448 31.775L27.548 31.837L26.586 31.894L25.582 31.942C24.7218 31.9794 23.861 31.9987 23 32C22.139 31.9987 21.2782 31.9794 20.418 31.942L19.414 31.894L18.453 31.837L17.553 31.775L16.731 31.712C15.839 31.6437 14.9996 31.2631 14.3605 30.637C13.7214 30.0109 13.3236 29.1795 13.237 28.289L13.197 27.864L13.122 26.954C13.0455 25.9711 13.0048 24.9858 13 24C13 23.017 13.052 21.989 13.122 21.046L13.197 20.136C13.21 19.99 13.223 19.849 13.237 19.711C13.3235 18.8207 13.7212 17.9894 14.3601 17.3633C14.999 16.7373 15.8381 16.3565 16.73 16.288L17.551 16.224L18.451 16.163L19.413 16.106L20.417 16.058C21.2775 16.0206 22.1387 16.0013 23 16ZM23 18C22.175 18 21.326 18.022 20.5 18.056L19.522 18.103L18.583 18.158L17.701 18.218L16.893 18.281C16.4683 18.3111 16.068 18.4906 15.7631 18.7877C15.4581 19.0848 15.2682 19.4803 15.227 19.904C15.11 21.113 15 22.618 15 24C15 25.382 15.11 26.887 15.227 28.096C15.312 28.968 16.004 29.646 16.893 29.719L17.701 29.781L18.583 29.841L19.522 29.897L20.5 29.944C21.326 29.978 22.175 30 23 30C23.825 30 24.674 29.978 25.5 29.944L26.478 29.897L27.417 29.842L28.299 29.782L29.107 29.719C29.5317 29.6889 29.932 29.5094 30.2369 29.2123C30.5419 28.9152 30.7318 28.5197 30.773 28.096C30.89 26.887 31 25.382 31 24C31 22.618 30.89 21.113 30.773 19.904C30.7318 19.4803 30.5419 19.0848 30.2369 18.7877C29.932 18.4906 29.5317 18.3111 29.107 18.281L28.299 18.219L27.417 18.159L26.478 18.103L25.5 18.056C24.6671 18.0202 23.8336 18.0015 23 18ZM21 21.575C20.9999 21.4773 21.0237 21.381 21.0694 21.2946C21.115 21.2081 21.181 21.1341 21.2618 21.079C21.3425 21.0239 21.4354 20.9894 21.5326 20.9784C21.6297 20.9674 21.728 20.9803 21.819 21.016L21.9 21.056L26.1 23.48C26.1836 23.5283 26.2544 23.596 26.3063 23.6774C26.3581 23.7589 26.3896 23.8517 26.3979 23.9478C26.4062 24.044 26.3912 24.1408 26.3542 24.23C26.3171 24.3192 26.2591 24.3981 26.185 24.46L26.1 24.52L21.9 26.945C21.8154 26.994 21.72 27.0216 21.6223 27.0253C21.5246 27.0291 21.4274 27.0089 21.3393 26.9665C21.2511 26.9241 21.1747 26.8608 21.1166 26.7821C21.0585 26.7034 21.0205 26.6117 21.006 26.515L21 26.425V21.575Z" fill="#F3F5F9"/>
</g>
<defs>
<filter id="filter0_i_0_412" x="4.9104" y="4.93677" width="42.0896" height="37.3784" filterUnits="userSpaceOnUse" color-interpolation-filters="sRGB">
<feFlood flood-opacity="0" result="BackgroundImageFix"/>
<feBlend mode="normal" in="SourceGraphic" in2="BackgroundImageFix" result="shape"/>
<feColorMatrix in="SourceAlpha" type="matrix" values="0 0 0 0 0 0 0 0 0 0 0 0 0 0 0 0 0 0 127 0" result="hardAlpha"/>
<feOffset dx="4.91045"/>
<feGaussianBlur stdDeviation="7.01493"/>
<feComposite in2="hardAlpha" operator="arithmetic" k2="-1" k3="1"/>
<feColorMatrix type="matrix" values="0 0 0 0 1 0 0 0 0 1 0 0 0 0 1 0 0 0 0.15 0"/>
<feBlend mode="normal" in2="shape" result="effect1_innerShadow_0_412"/>
</filter>
<clipPath id="clip0_0_412">
<rect width="24" height="24" fill="white" transform="translate(11 12)"/>
</clipPath>
</defs>
</svg>
