<svg width="47" height="48" viewBox="0 0 47 48" fill="none" xmlns="http://www.w3.org/2000/svg">
<g filter="url(#filter0_i_0_402)">
<ellipse cx="23.5" cy="23.6259" rx="18.6893" ry="18.5896" transform="rotate(-90 23.5 23.6259)" fill="black"/>
</g>
<g clip-path="url(#clip0_0_402)">
<path d="M31.5347 16.6152H15.4174C14.6081 16.6152 13.9521 17.2712 13.9521 18.0805V30.5348C13.9521 31.344 14.6081 32 15.4174 32H31.5347C32.344 32 33 31.344 33 30.5348V18.0805C33 17.2712 32.344 16.6152 31.5347 16.6152Z" stroke="white" stroke-width="2" stroke-linecap="round" stroke-linejoin="round"/>
<path d="M13.9521 18.4465L22.5383 23.6103C22.8016 23.7649 23.1334 23.8495 23.4761 23.8495C23.8187 23.8495 24.1505 23.7649 24.4138 23.6103L33 18.4465" stroke="white" stroke-width="2" stroke-linecap="round" stroke-linejoin="round"/>
</g>
<defs>
<filter id="filter0_i_0_402" x="4.9104" y="4.93677" width="42.0896" height="37.3784" filterUnits="userSpaceOnUse" color-interpolation-filters="sRGB">
<feFlood flood-opacity="0" result="BackgroundImageFix"/>
<feBlend mode="normal" in="SourceGraphic" in2="BackgroundImageFix" result="shape"/>
<feColorMatrix in="SourceAlpha" type="matrix" values="0 0 0 0 0 0 0 0 0 0 0 0 0 0 0 0 0 0 127 0" result="hardAlpha"/>
<feOffset dx="4.91045"/>
<feGaussianBlur stdDeviation="7.01493"/>
<feComposite in2="hardAlpha" operator="arithmetic" k2="-1" k3="1"/>
<feColorMatrix type="matrix" values="0 0 0 0 1 0 0 0 0 1 0 0 0 0 1 0 0 0 0.15 0"/>
<feBlend mode="normal" in2="shape" result="effect1_innerShadow_0_402"/>
</filter>
<clipPath id="clip0_0_402">
<rect width="24" height="24" fill="white" transform="translate(11 12)"/>
</clipPath>
</defs>
</svg>
